<?xml version="1.0" encoding="UTF-8"?>
<svg id="Layer_2" data-name="Layer 2" xmlns="http://www.w3.org/2000/svg" viewBox="0 0 1800.27 244.4">
  <defs>
    <style>
      .cls-1 {
        fill: #000;
        stroke-width: 0px;
      }
    </style>
  </defs>
  <g id="Layer_1-2" data-name="Layer 1">
    <path class="cls-1" d="M214.84,176.77c-5.74-5.05-11.5-10.08-17.27-15.1l-45.33-39.53c-6.7-5.85-13.39-11.69-20.09-17.54l-7.6-6.63c2.58-3.66,3.54-7.62,2.79-11.51-.73-3.8-3.06-7.17-6.6-9.61.06-.05.12-.1.18-.15.99-.83,1.93-1.61,2.78-2.55.71-.78,1.33-.97,2.44-.74,3.16.65,6.51.24,9.95-1.23,5.7-2.43,9.65-7.26,10.82-13.24,1.19-6.07-.79-12.41-5.29-16.96-5.15-5.21-10.42-10.47-15.52-15.56-5.77-5.76-11.75-11.72-17.57-17.63-3.68-3.74-7.76-7.49-13.52-8.77l-5.62-.02-.17.06c-.58.21-1.18.4-1.77.59-1.34.43-2.72.88-4.01,1.55-7.08,3.68-10.83,11.33-9.56,19.5.07.45-.15,1.21-.42,1.49-15.25,15.33-31.7,31.79-50.27,50.31-.32.32-.9.54-1.11.51-11.2-1.38-18.73,3.71-21.76,14.74-.02.06-.06.11-.09.16-.04.08-.09.15-.13.23l-.11.23v5.46l.04.3c.91,3.09,2.37,7.05,5.54,10.2,5.5,5.47,10.98,10.96,16.46,16.45,6.63,6.64,13.26,13.28,19.92,19.89,5.92,5.88,14.39,7.32,21.58,3.68,7.18-3.65,10.95-11.13,9.83-19.53-.08-.59.03-1.19.18-1.39.89-1.15,1.86-2.22,2.9-3.35.12-.13.24-.26.36-.39,6.11,7.81,11.99,8.87,21.09,3.84.04.05.09.1.13.15l15.01,17.26c7.76,8.92,15.53,17.85,23.29,26.77,3.74,4.3,7.48,8.6,11.22,12.9,9.66,11.12,19.65,22.63,29.57,33.86,5.11,5.79,12.45,8.93,19.95,8.93,3.28,0,6.6-.6,9.77-1.84,10.64-4.17,17.65-14.54,17.44-25.8-.15-7.86-3.33-14.58-9.46-19.98ZM49.89,134.2c-11.76-11.56-23.22-23.04-36.81-36.73-3.07-3.09-3.08-7.72-.03-10.76,1.49-1.49,3.41-2.24,5.34-2.24s3.9.76,5.43,2.28c11.85,11.78,24.23,24.16,36.77,36.79,2.42,2.43,2.96,5.26,1.6,8.41-1.26,2.93-3.62,4.33-7.85,4.65-.27-.13-.59-.26-.94-.4-1.13-.47-2.55-1.05-3.51-1.99ZM85.94,112.76c.27-.59.61-1.32,1.1-1.81,7.94-8.05,16.08-16.17,23.74-23.8,1.66-1.66,3.64-1.83,5.05-.44.63.62.97,1.37.97,2.17,0,.96-.47,1.98-1.35,2.86-5.13,5.16-10.27,10.29-15.41,15.43l-8.35,8.36c-1.3,1.3-2.52,1.62-3.95,1.02-1.1-.46-1.85-1.22-1.97-3.4.06-.12.12-.24.18-.38ZM168.73,150.85l-17.97,17.94-44.94-51.63,11.29-11.34,51.62,45.03ZM85.1,15.39c1.08-2.75,3.88-4.58,6.98-4.58h.7s.1-.19.1-.19c.34.16.68.31,1.01.46,1.34.59,2.61,1.15,3.48,2.02,10.92,10.74,22.66,22.46,36.96,36.89,1.43,1.45,2.21,3.34,2.19,5.33-.02,2.04-.86,3.97-2.37,5.42-3.04,2.93-7.6,2.88-10.62-.11-11.47-11.39-23.55-23.47-36.93-36.94-2.27-2.28-2.78-5.07-1.52-8.3ZM114.62,67.55l-47.09,47.1-34.83-34.84,47.05-47.08,34.87,34.82ZM181.82,162.28l-19.65,19.6-3.74-4.27,19.1-19.08,4.29,3.75ZM213.57,196.89c.07,4.38-1.67,8.57-4.89,11.81-3.19,3.21-7.38,4.92-11.83,4.91-4.24-.04-8.2-1.76-11.13-4.84-4.01-4.21-7.89-8.73-11.64-13.09-1.49-1.73-2.98-3.47-4.48-5.2l20.77-20.72c1.71,1.48,3.42,2.95,5.14,4.43,4.36,3.73,8.87,7.6,13.1,11.59,3.13,2.96,4.89,6.9,4.96,11.11Z"/>
    <path class="cls-1" d="M113.93,196.01c-.45-.37-.9-.75-1.35-1.13.16-.3.34-.62.51-.94,2.65-5.08,2.46-11.06-.51-16-2.9-4.81-7.95-7.7-13.5-7.73-23.75-.12-48.17-.12-74.65,0-4.73.02-9.16,2.19-12.16,5.95-3.07,3.84-4.23,8.78-3.17,13.53.33,1.49.92,2.92,1.49,4.31.15.37.3.74.45,1.11-3.94,2.44-6.83,5.58-8.59,9.34-.72,1.53-1.23,3.15-1.72,4.72-.22.69-.44,1.39-.67,2.07l-.06.17v9.13l.13.24c1.77,3.25,4.73,3.63,6.81,3.63h.03c28.86-.05,58.19-.05,86.57-.05h23.23s.45,0,.45,0c.53,0,1.09.02,1.67-.07,2.69-.43,4.43-2.15,4.65-4.59.77-8.61-.96-14.93-5.45-19.89-1.26-1.39-2.66-2.56-4.15-3.8ZM103.77,188.31c-.62,1.59-1.96,3.49-4.8,3.5-26.85.06-51.16.06-74.34,0-1.32,0-2.58-.55-3.55-1.53-1.03-1.05-1.61-2.49-1.59-3.94.05-3.1,2.46-5.36,5.72-5.37,5.35-.02,10.71-.02,16.06-.02,3.46,0,6.93,0,10.39,0h10.39s9.62,0,9.62,0c8.86,0,17.72-.01,26.58.01,2.12,0,3.95.91,5.03,2.49.96,1.41,1.14,3.18.49,4.85ZM49.56,202.66h10.95s11.67,0,11.67,0c9.4,0,19.13-.02,28.69.02,6.27.03,11.28,4.66,11.83,10.74H10.94c.53-6.08,5.54-10.72,11.82-10.74,8.93-.04,18.02-.03,26.8-.02Z"/>
    <path class="cls-1" d="M61.31,72.91c1.22,0,2.47-.43,3.56-1.29.38-.3.71-.64,1.03-.96l.62-.62c5.43-5.42,10.85-10.85,16.27-16.28.11-.11.23-.22.35-.33.52-.47,1.17-1.06,1.31-1.89l.06-.37c.25-1.48.52-3.15-.11-4.53-.5-1.08-1.52-1.75-2.51-2.4-.36-.24-.73-.48-1.06-.74l-.52-.41-.6.29c-.46.22-.89.4-1.29.55-.85.34-1.65.66-2.26,1.27-7.05,6.93-13.18,13.06-18.73,18.73-2.02,2.07-1.97,5.23.13,7.36,1.05,1.06,2.38,1.6,3.75,1.6Z"/>
    <path class="cls-1" d="M49.11,85.14s.06,0,.09,0c2.94-.05,5.32-2.45,5.31-5.36-.02-2.87-2.47-5.32-5.36-5.35-1.44,0-2.82.55-3.84,1.58-1.03,1.05-1.58,2.45-1.55,3.95.07,2.92,2.41,5.18,5.34,5.18Z"/>
    <path class="cls-1" d="M381.69,160.66h-83.07l-17.19,39.08h-23l70.79-156.31h22.11l71.01,156.31h-23.45l-17.19-39.08ZM373.88,142.8l-33.72-76.59-33.72,76.59h67.44Z"/>
    <path class="cls-1" d="M545.81,131.63v68.11h-21.44v-65.65c0-23.22-11.61-34.61-31.93-34.61-22.78,0-37.51,13.62-37.51,39.3v60.96h-21.44v-118.35h20.54v17.86c8.71-12.06,23.89-18.98,42.65-18.98,28.81,0,49.13,16.52,49.13,51.36Z"/>
    <path class="cls-1" d="M688.94,34.05v165.69h-20.54v-18.76c-9.6,13.4-24.79,20.1-42.2,20.1-34.61,0-59.84-24.34-59.84-60.51s25.23-60.29,59.84-60.29c16.75,0,31.49,6.25,41.31,18.98V34.05h21.44ZM667.73,140.56c0-25.23-17.19-41.53-39.75-41.53s-39.97,16.3-39.97,41.53,17.19,41.76,39.97,41.76,39.75-16.52,39.75-41.76Z"/>
    <path class="cls-1" d="M825.38,81.39l-57.39,130.18c-10.5,25.01-24.12,32.82-42.2,32.82-11.39,0-23-3.8-30.37-10.94l9.15-16.08c5.81,5.58,13.17,8.71,21.21,8.71,10.27,0,16.75-4.69,22.55-18.31l3.8-8.26-52.25-118.12h22.33l41.31,94.68,40.86-94.68h20.99Z"/>
    <path class="cls-1" d="M990.39,160.66h-83.07l-17.19,39.08h-23l70.79-156.31h22.11l71.01,156.31h-23.45l-17.19-39.08ZM982.57,142.8l-33.72-76.59-33.72,76.59h67.44Z"/>
    <path class="cls-1" d="M1150.27,81.39v118.35h-20.32v-17.86c-8.71,12.28-23.45,19.2-40.19,19.2-30.59,0-50.91-16.75-50.91-51.58v-68.11h21.44v65.65c0,23.22,11.61,34.83,31.93,34.83,22.33,0,36.62-13.84,36.62-39.3v-61.18h21.44Z"/>
    <path class="cls-1" d="M1171.25,140.56c0-35.28,26.13-60.29,62.52-60.29,21.21,0,38.85,8.71,48.23,25.23l-16.3,10.5c-7.59-11.61-19.2-16.97-32.16-16.97-23.22,0-40.64,16.3-40.64,41.53s17.42,41.76,40.64,41.76c12.95,0,24.56-5.36,32.16-16.97l16.3,10.27c-9.38,16.52-27.02,25.46-48.23,25.46-36.4,0-62.52-25.23-62.52-60.51Z"/>
    <path class="cls-1" d="M1368.87,192.82c-6.48,5.58-16.3,8.26-25.9,8.26-23.89,0-37.51-13.17-37.51-37.07v-64.98h-20.1v-17.64h20.1v-25.9h21.44v25.9h33.94v17.64h-33.94v64.09c0,12.73,6.7,19.87,18.53,19.87,6.25,0,12.28-2.01,16.75-5.58l6.7,15.41Z"/>
    <path class="cls-1" d="M1382.04,44.77c0-7.82,6.25-14.07,14.51-14.07s14.51,6.03,14.51,13.62c0,8.04-6.03,14.29-14.51,14.29s-14.51-6.03-14.51-13.84ZM1385.83,81.39h21.44v118.35h-21.44v-118.35Z"/>
    <path class="cls-1" d="M1428.26,140.56c0-35.28,26.13-60.29,61.63-60.29s61.41,25.01,61.41,60.29-25.9,60.51-61.41,60.51-61.63-25.23-61.63-60.51ZM1529.63,140.56c0-25.23-16.97-41.53-39.75-41.53s-39.97,16.3-39.97,41.53,17.19,41.76,39.97,41.76,39.75-16.52,39.75-41.76Z"/>
    <path class="cls-1" d="M1684.38,131.63v68.11h-21.44v-65.65c0-23.22-11.61-34.61-31.93-34.61-22.78,0-37.51,13.62-37.51,39.3v60.96h-21.44v-118.35h20.54v17.86c8.71-12.06,23.89-18.98,42.65-18.98,28.81,0,49.13,16.52,49.13,51.36Z"/>
    <path class="cls-1" d="M1700.23,187.23l8.93-16.97c10.05,7.15,26.13,12.28,41.53,12.28,19.87,0,28.14-6.03,28.14-16.08,0-26.57-74.81-3.57-74.81-50.69,0-21.21,18.98-35.5,49.35-35.5,15.41,0,32.83,4.02,43.1,10.72l-9.15,16.97c-10.72-6.92-22.55-9.38-34.16-9.38-18.76,0-27.91,6.92-27.91,16.3,0,27.91,75.03,5.14,75.03,51.14,0,21.44-19.65,35.06-51.14,35.06-19.65,0-39.08-6.03-48.9-13.84Z"/>
  </g>
</svg>